<svg width="106" height="568" viewBox="0 0 106 568" fill="none" xmlns="http://www.w3.org/2000/svg">
<path d="M104 567.294L2.18185 567.294L2.18184 525.234C2.18184 517.611 3.67332 511.032 6.65628 505.497C9.60608 499.929 13.7325 495.637 19.0355 492.621C24.3054 489.605 30.4371 488.097 37.4304 488.097C44.4569 488.097 50.6051 489.638 55.875 492.72C61.1118 495.769 65.1719 500.128 68.0554 505.795C70.9389 511.463 72.3807 518.191 72.3807 525.98L72.3807 551.932L52.9915 551.932L52.9915 530.554C52.9915 526.842 52.3452 523.743 51.0526 521.257C49.76 518.738 47.9536 516.832 45.6335 515.54C43.2803 514.247 40.546 513.601 37.4304 513.601C34.2817 513.601 31.5639 514.247 29.277 515.54C26.9569 516.832 25.1672 518.738 23.9077 521.257C22.6482 523.776 22.0185 526.875 22.0185 530.554L22.0185 542.685L104 542.685L104 567.294ZM104 475.966L2.18184 475.966L2.18184 433.906C2.18184 426.283 3.55731 419.704 6.30826 414.169C9.02606 408.601 12.937 404.309 18.0412 401.293C23.1122 398.277 29.1279 396.768 36.0881 396.768C43.1477 396.768 49.1468 398.31 54.0852 401.392C58.9906 404.474 62.7358 408.849 65.321 414.517C67.8731 420.185 69.1492 426.896 69.1492 434.652L69.1492 461.25L49.76 461.25L49.76 439.226C49.76 435.514 49.2794 432.415 48.3182 429.929C47.3239 427.41 45.8324 425.504 43.8438 424.212C41.822 422.919 39.2368 422.273 36.0881 422.273C32.9394 422.273 30.3376 422.919 28.2827 424.212C26.1946 425.504 24.6369 427.41 23.6094 429.929C22.5488 432.448 22.0185 435.547 22.0185 439.226L22.0185 451.357L104 451.357L104 475.966ZM57.4659 418.643L104 393.288L104 420.135L57.4659 444.993L57.4659 418.643ZM53.0909 287.17C64.2936 287.17 73.7893 289.324 81.5781 293.633C89.367 297.942 95.2832 303.775 99.3267 311.133C103.37 318.458 105.392 326.677 105.392 335.792C105.392 344.94 103.354 353.176 99.277 360.501C95.2003 367.826 89.2841 373.642 81.5284 377.951C73.7396 382.227 64.2604 384.364 53.0909 384.364C41.8883 384.364 32.3925 382.227 24.6037 377.951C16.8149 373.642 10.8987 367.826 6.85513 360.501C2.81157 353.176 0.789789 344.94 0.789789 335.792C0.789789 326.677 2.81157 318.458 6.85513 311.133C10.8987 303.775 16.8149 297.942 24.6037 293.633C32.3925 289.324 41.8883 287.17 53.0909 287.17ZM53.0909 312.326C46.4621 312.326 40.8608 313.271 36.2869 315.16C31.7131 317.016 28.2495 319.701 25.8963 323.214C23.5431 326.694 22.3665 330.887 22.3665 335.792C22.3665 340.664 23.5431 344.857 25.8963 348.37C28.2495 351.883 31.7131 354.585 36.287 356.474C40.8608 358.33 46.4621 359.258 53.0909 359.258C59.7197 359.258 65.321 358.33 69.8949 356.474C74.4688 354.585 77.9323 351.883 80.2855 348.37C82.6388 344.857 83.8154 340.664 83.8154 335.792C83.8154 330.887 82.6388 326.694 80.2855 323.214C77.9323 319.701 74.4688 317.016 69.8949 315.16C65.321 313.271 59.7197 312.326 53.0909 312.326ZM104 272.802L2.18183 272.802L2.18183 203.299L22.1676 203.299L22.1676 248.192L43.0483 248.192L43.0483 207.724L63.0838 207.724L63.0838 248.192L104 248.192L104 272.802ZM2.18183 166.298L104 166.298L104 190.907L2.18183 190.907L2.18183 166.298ZM104 150.849L2.18183 150.849L2.18183 126.239L84.0142 126.239L84.0142 83.8814L104 83.8814L104 150.849ZM104 71.1417L2.18182 71.1417L2.18182 0.147373L22.1676 0.147372L22.1676 46.5323L43.0483 46.5323L43.0483 3.77663L63.0838 3.77663L63.0838 46.5323L84.0142 46.5323L84.0142 0.147369L104 0.147368L104 71.1417Z" fill="black"/>
</svg>
