<svg width="645" height="102" viewBox="0 0 645 102" fill="none" xmlns="http://www.w3.org/2000/svg">
<path d="M0.705966 102V0.181815H42.7656C50.3887 0.181815 56.9678 1.67329 62.5028 4.65625C68.071 7.60606 72.3632 11.7325 75.3793 17.0355C78.3954 22.3054 79.9034 28.437 79.9034 35.4304C79.9034 42.4569 78.3622 48.6051 75.2798 53.875C72.2306 59.1117 67.8722 63.1719 62.2045 66.0554C56.5369 68.9389 49.8087 70.3807 42.0199 70.3807H16.0682V50.9915H37.446C41.1581 50.9915 44.2571 50.3452 46.7429 49.0526C49.2618 47.7599 51.1676 45.9536 52.4602 43.6335C53.7528 41.2803 54.3991 38.5459 54.3991 35.4304C54.3991 32.2817 53.7528 29.5639 52.4602 27.277C51.1676 24.9569 49.2618 23.1671 46.7429 21.9077C44.224 20.6482 41.125 20.0185 37.446 20.0185H25.3153V102H0.705966ZM92.0341 102V0.181815H134.094C141.717 0.181815 148.296 1.55729 153.831 4.30824C159.399 7.02604 163.691 10.937 166.707 16.0412C169.723 21.1122 171.232 27.1278 171.232 34.0881C171.232 41.1477 169.69 47.1468 166.608 52.0852C163.526 56.9905 159.151 60.7358 153.483 63.321C147.815 65.8731 141.104 67.1491 133.348 67.1491H106.75V47.7599H128.774C132.486 47.7599 135.585 47.2794 138.071 46.3182C140.59 45.3239 142.496 43.8324 143.788 41.8438C145.081 39.822 145.727 37.2367 145.727 34.0881C145.727 30.9394 145.081 28.3376 143.788 26.2827C142.496 24.1946 140.59 22.6368 138.071 21.6094C135.552 20.5488 132.453 20.0185 128.774 20.0185H116.643V102H92.0341ZM149.357 55.4659L174.712 102H147.865L123.007 55.4659H149.357ZM184.729 102V0.181815H255.724V20.1676H209.339V41.0483H252.094V61.0838H209.339V82.0142H255.724V102H184.729ZM294.254 0.181815L317.023 74.7557H317.869L340.638 0.181815H368.181L333.827 102H301.065L266.711 0.181815H294.254ZM403.753 0.181815V102H379.143V0.181815H403.753ZM419.202 102V0.181815H490.196V20.1676H443.811V41.0483H486.567V61.0838H443.811V82.0142H490.196V102H419.202ZM530.019 102L500.388 0.181815H527.583L542.945 66.9006H543.79L561.34 0.181815H583.513L601.063 67.0497H601.908L617.32 0.181815H644.465L614.884 102H591.169L572.824 40.2528H572.029L553.684 102H530.019Z" fill="black"/>
</svg>
